<mxfile host="Electron" agent="Mozilla/5.0 (Windows NT 10.0; Win64; x64) AppleWebKit/537.36 (KHTML, like Gecko) draw.io/25.0.2 Chrome/128.0.6613.186 Electron/32.2.5 Safari/537.36" version="25.0.2">
  <diagram id="_s5kHCaRj8zanspT5NJb" name="Seite-1">
    <mxGraphModel dx="1632" dy="1580" grid="1" gridSize="10" guides="1" tooltips="1" connect="1" arrows="1" fold="1" page="0" pageScale="1" pageWidth="827" pageHeight="1169" math="0" shadow="0">
      <root>
        <mxCell id="0" />
        <mxCell id="1" parent="0" />
        <mxCell id="Ee80wKZsMW9Ie8XtCKah-1" value="DataTransferModel" style="swimlane;fontStyle=0;childLayout=stackLayout;horizontal=1;startSize=26;fillColor=#f5f5f5;horizontalStack=0;resizeParent=1;resizeParentMax=0;resizeLast=0;collapsible=1;marginBottom=0;whiteSpace=wrap;html=1;fontColor=#333333;strokeColor=#666666;perimeterSpacing=1;swimlaneLine=1;swimlaneFillColor=none;" parent="1" vertex="1">
          <mxGeometry x="-320" y="-238" width="320" height="52" as="geometry" />
        </mxCell>
        <mxCell id="Ee80wKZsMW9Ie8XtCKah-2" value="&lt;font face=&quot;Courier New&quot;&gt;components: List of datapoints / components&lt;/font&gt;" style="text;strokeColor=none;fillColor=none;align=left;verticalAlign=top;spacingLeft=4;spacingRight=4;overflow=hidden;rotatable=0;points=[[0,0.5],[1,0.5]];portConstraint=eastwest;whiteSpace=wrap;html=1;" parent="Ee80wKZsMW9Ie8XtCKah-1" vertex="1">
          <mxGeometry y="26" width="320" height="26" as="geometry" />
        </mxCell>
        <mxCell id="Ee80wKZsMW9Ie8XtCKah-54" style="edgeStyle=orthogonalEdgeStyle;rounded=0;orthogonalLoop=1;jettySize=auto;html=1;entryX=1;entryY=0.5;entryDx=0;entryDy=0;exitX=0.5;exitY=0;exitDx=0;exitDy=0;" parent="1" source="Ee80wKZsMW9Ie8XtCKah-8" target="Ee80wKZsMW9Ie8XtCKah-2" edge="1">
          <mxGeometry relative="1" as="geometry">
            <Array as="points">
              <mxPoint x="240" y="-220" />
              <mxPoint x="20" y="-220" />
              <mxPoint x="20" y="-199" />
            </Array>
          </mxGeometry>
        </mxCell>
        <mxCell id="Ee80wKZsMW9Ie8XtCKah-8" value="DataTransferComponentModel(ComponentModel)" style="swimlane;fontStyle=0;childLayout=stackLayout;horizontal=1;startSize=26;fillColor=#f5f5f5;horizontalStack=0;resizeParent=1;resizeParentMax=0;resizeLast=0;collapsible=1;marginBottom=0;whiteSpace=wrap;html=1;fontColor=#333333;strokeColor=#666666;" parent="1" vertex="1">
          <mxGeometry x="80" y="-200" width="320" height="156" as="geometry">
            <mxRectangle x="60" y="-110" width="160" height="30" as="alternateBounds" />
          </mxGeometry>
        </mxCell>
        <mxCell id="Ee80wKZsMW9Ie8XtCKah-9" value="&lt;font face=&quot;Courier New&quot;&gt;entity_id&lt;/font&gt;:&amp;nbsp;Internal ID of the entity" style="text;strokeColor=none;fillColor=default;align=left;verticalAlign=top;spacingLeft=4;spacingRight=4;overflow=hidden;rotatable=0;points=[[0,0.5],[1,0.5]];portConstraint=eastwest;whiteSpace=wrap;html=1;" parent="Ee80wKZsMW9Ie8XtCKah-8" vertex="1">
          <mxGeometry y="26" width="320" height="26" as="geometry" />
        </mxCell>
        <mxCell id="Ee80wKZsMW9Ie8XtCKah-10" value="&lt;font face=&quot;Courier New&quot;&gt;attribute_id&lt;/font&gt;: Internal ID of the attribute/command" style="text;strokeColor=none;fillColor=default;align=left;verticalAlign=top;spacingLeft=4;spacingRight=4;overflow=hidden;rotatable=0;points=[[0,0.5],[1,0.5]];portConstraint=eastwest;whiteSpace=wrap;html=1;" parent="Ee80wKZsMW9Ie8XtCKah-8" vertex="1">
          <mxGeometry y="52" width="320" height="26" as="geometry" />
        </mxCell>
        <mxCell id="lZtbzVWi8SOST9soVzYc-3" value="&lt;font face=&quot;Courier New&quot;&gt;value&lt;/font&gt;: The value as single value, List or DataFrame" style="text;strokeColor=none;fillColor=default;align=left;verticalAlign=top;spacingLeft=4;spacingRight=4;overflow=hidden;rotatable=0;points=[[0,0.5],[1,0.5]];portConstraint=eastwest;whiteSpace=wrap;html=1;" parent="Ee80wKZsMW9Ie8XtCKah-8" vertex="1">
          <mxGeometry y="78" width="320" height="26" as="geometry" />
        </mxCell>
        <mxCell id="lZtbzVWi8SOST9soVzYc-10" value="&lt;font face=&quot;Courier New&quot;&gt;unit&lt;/font&gt;: The unit of the datapoint" style="text;strokeColor=none;fillColor=default;align=left;verticalAlign=top;spacingLeft=4;spacingRight=4;overflow=hidden;rotatable=0;points=[[0,0.5],[1,0.5]];portConstraint=eastwest;whiteSpace=wrap;html=1;" parent="Ee80wKZsMW9Ie8XtCKah-8" vertex="1">
          <mxGeometry y="104" width="320" height="26" as="geometry" />
        </mxCell>
        <mxCell id="lZtbzVWi8SOST9soVzYc-12" value="&lt;font face=&quot;Courier New&quot;&gt;timestamp&lt;/font&gt;: timestamp of datapoint (latest)" style="text;strokeColor=none;fillColor=default;align=left;verticalAlign=top;spacingLeft=4;spacingRight=4;overflow=hidden;rotatable=0;points=[[0,0.5],[1,0.5]];portConstraint=eastwest;whiteSpace=wrap;html=1;" parent="Ee80wKZsMW9Ie8XtCKah-8" vertex="1">
          <mxGeometry y="130" width="320" height="26" as="geometry" />
        </mxCell>
      </root>
    </mxGraphModel>
  </diagram>
</mxfile>
